<svg width="69" height="69" viewBox="0 0 69 69" fill="none" xmlns="http://www.w3.org/2000/svg">
<g filter="url(#filter0_d_35_35)">
<circle cx="33.5" cy="33.5" r="30.5" fill="url(#paint0_linear_35_35)" fill-opacity="0.4" shape-rendering="crispEdges"/>
</g>
<path d="M27.21 34.4932H21.7607L21.7314 31.6514H26.4043C27.2051 31.6514 27.874 31.5391 28.4111 31.3145C28.9482 31.0898 29.3535 30.7627 29.627 30.333C29.9102 29.9033 30.0518 29.3809 30.0518 28.7656C30.0518 28.082 29.9199 27.5254 29.6562 27.0957C29.4023 26.666 29.002 26.3535 28.4551 26.1582C27.9082 25.9531 27.2148 25.8506 26.375 25.8506H23.0645V44H19.0361V22.6719H26.375C27.5859 22.6719 28.665 22.7891 29.6123 23.0234C30.5693 23.248 31.3799 23.5996 32.0439 24.0781C32.708 24.5566 33.2109 25.1572 33.5527 25.8799C33.9043 26.6025 34.0801 27.4619 34.0801 28.458C34.0801 29.3369 33.875 30.1475 33.4648 30.8896C33.0645 31.6221 32.4443 32.2178 31.6045 32.6768C30.7744 33.1357 29.7197 33.3994 28.4404 33.4678L27.21 34.4932ZM27.0342 44H20.5742L22.2588 40.8359H27.0342C27.835 40.8359 28.4941 40.7041 29.0117 40.4404C29.5391 40.1768 29.9297 39.8154 30.1836 39.3564C30.4473 38.8877 30.5791 38.3506 30.5791 37.7451C30.5791 37.0811 30.4619 36.5049 30.2275 36.0166C30.0029 35.5283 29.6416 35.1523 29.1436 34.8887C28.6553 34.625 28.0107 34.4932 27.21 34.4932H23.0205L23.0498 31.6514H28.3818L29.3047 32.75C30.5352 32.7598 31.5361 33.0039 32.3076 33.4824C33.0889 33.9609 33.665 34.5762 34.0361 35.3281C34.4072 36.0801 34.5928 36.8906 34.5928 37.7598C34.5928 39.127 34.2949 40.2744 33.6992 41.2021C33.1133 42.1299 32.2539 42.8281 31.1211 43.2969C29.998 43.7656 28.6357 44 27.0342 44ZM44.9053 44.293C43.7041 44.293 42.625 44.0977 41.668 43.707C40.7109 43.3164 39.8955 42.7744 39.2217 42.0811C38.5576 41.3779 38.0449 40.5625 37.6836 39.6348C37.332 38.6973 37.1562 37.6914 37.1562 36.6172V36.0312C37.1562 34.8105 37.332 33.7021 37.6836 32.7061C38.0352 31.7002 38.5332 30.8359 39.1777 30.1133C39.8223 29.3906 40.5938 28.834 41.4922 28.4434C42.3906 28.0527 43.3818 27.8574 44.4658 27.8574C45.5889 27.8574 46.5801 28.0479 47.4395 28.4287C48.2988 28.7998 49.0166 29.3271 49.5928 30.0107C50.1689 30.6943 50.6035 31.5146 50.8965 32.4717C51.1895 33.4189 51.3359 34.4688 51.3359 35.6211V37.2471H38.9141V34.5811H47.5273V34.2881C47.5078 33.6729 47.3906 33.1113 47.1758 32.6035C46.9609 32.0859 46.6289 31.6758 46.1797 31.373C45.7305 31.0605 45.1494 30.9043 44.4365 30.9043C43.8604 30.9043 43.3574 31.0312 42.9277 31.2852C42.5078 31.5293 42.1562 31.8809 41.873 32.3398C41.5996 32.7891 41.3945 33.3262 41.2578 33.9512C41.1211 34.5762 41.0527 35.2695 41.0527 36.0312V36.6172C41.0527 37.2812 41.1406 37.8965 41.3164 38.4629C41.502 39.0293 41.7705 39.5225 42.1221 39.9424C42.4834 40.3525 42.9131 40.6748 43.4111 40.9092C43.9189 41.1338 44.4951 41.2461 45.1396 41.2461C45.9502 41.2461 46.6826 41.0898 47.3369 40.7773C48.001 40.4551 48.5771 39.9814 49.0654 39.3564L51.0137 41.3779C50.6816 41.8662 50.2324 42.335 49.666 42.7842C49.1094 43.2334 48.4355 43.5996 47.6445 43.8828C46.8535 44.1562 45.9404 44.293 44.9053 44.293Z" fill="white"/>
<line x1="38" y1="25" x2="51" y2="25" stroke="white" stroke-width="2"/>
<defs>
<filter id="filter0_d_35_35" x="0" y="0" width="69" height="69" filterUnits="userSpaceOnUse" color-interpolation-filters="sRGB">
<feFlood flood-opacity="0" result="BackgroundImageFix"/>
<feColorMatrix in="SourceAlpha" type="matrix" values="0 0 0 0 0 0 0 0 0 0 0 0 0 0 0 0 0 0 127 0" result="hardAlpha"/>
<feOffset dx="1" dy="1"/>
<feGaussianBlur stdDeviation="2"/>
<feComposite in2="hardAlpha" operator="out"/>
<feColorMatrix type="matrix" values="0 0 0 0 0 0 0 0 0 0 0 0 0 0 0 0 0 0 0.25 0"/>
<feBlend mode="normal" in2="BackgroundImageFix" result="effect1_dropShadow_35_35"/>
<feBlend mode="normal" in="SourceGraphic" in2="effect1_dropShadow_35_35" result="shape"/>
</filter>
<linearGradient id="paint0_linear_35_35" x1="33" y1="-3.5" x2="33" y2="68.5" gradientUnits="userSpaceOnUse">
<stop stop-color="#8C2E26" stop-opacity="0.71"/>
<stop offset="0.500327" stop-color="#7D160E" stop-opacity="0.94"/>
</linearGradient>
</defs>
</svg>
