<svg id="Calque_1" data-name="Calque 1" xmlns="http://www.w3.org/2000/svg" viewBox="0 0 2500 2500"><defs><style>.cls-1{fill:#1769ff;}.cls-2{fill:#fff;}</style></defs><circle id="background" class="cls-1" cx="1250" cy="1250" r="1250"/><path id="behance" class="cls-2" d="M883.1,683.6q80.85,0,147.6,14.3t114.2,46.8q47.55,32.55,73.8,86.5t26.2,133.3q0,85.65-38.9,142.8t-115,93.6q104.7,30.15,156.3,105.5t51.6,181.7q0,85.65-33.3,148.4t-89.7,102.3q-56.4,39.75-128.5,58.7a580.06,580.06,0,0,1-148.3,19H350V683.6Zm-31.7,458.5q66.6,0,109.5-31.7t42.8-103.1q0-39.6-14.3-65c-9.5-16.9-22.2-30.2-38.1-39.7s-34.1-16.1-54.7-19.8a364.11,364.11,0,0,0-64.3-5.5H599.2v265l252.2-.2Zm14.3,480.7a333.37,333.37,0,0,0,69.8-7.1q33.3-7.2,58.7-23.8t40.5-45.2c10-19,15.1-43.4,15.1-73,0-58.1-16.4-99.7-49.2-124.5s-76.2-37.3-130.1-37.3H599.2v311l266.5-.1Zm746.6-23.8q50.7,49.2,146,49.2,68.25,0,117.4-34.1t60.3-72.2h198.3q-47.55,147.6-146,211t-238,63.5q-96.75,0-174.5-30.9t-131.7-88.1q-54-57.15-83.3-136.4t-29.3-174.5q0-91.95,30.1-171.3t85.7-137.2q55.5-57.9,132.5-91.2t170.6-33.3q104.7,0,182.5,40.5t127.7,108.7q50,68.25,72.2,155.5t15.9,182.5H1556.9c3.1,72.7,21.6,125.6,55.4,158.3ZM1867,1167.5q-40.5-44.4-123-44.4-54,0-89.6,18.2c-23.8,12.2-42.8,27.2-57.1,45.2s-24.3,37-30.1,57.1-9.3,38.1-10.3,53.9h366.5q-16.05-85.5-56.4-130ZM1518.3,741.1h457.9v127H1518.3Z" transform="translate(0 0)"/></svg>