<svg width="69" height="69" viewBox="0 0 69 69" fill="none" xmlns="http://www.w3.org/2000/svg">
<g filter="url(#filter0_d_35_37)">
<circle cx="33.5" cy="33.5" r="30.5" fill="url(#paint0_linear_35_37)" fill-opacity="0.4" shape-rendering="crispEdges"/>
</g>
<path d="M56 19.0191C54.1718 20.299 52.1477 21.2779 50.0055 21.9181C48.8557 20.606 47.3276 19.676 45.628 19.2539C43.9283 18.8318 42.139 18.9379 40.5022 19.558C38.8653 20.1781 37.4598 21.2822 36.4757 22.721C35.4916 24.1598 34.9765 25.8638 35 27.6026V29.4974C31.645 29.5837 28.3206 28.8452 25.3228 27.3476C22.3251 25.85 19.747 23.6398 17.8182 20.9139C17.8182 20.9139 10.1818 37.9672 27.3636 45.5465C23.4319 48.1954 18.7482 49.5236 14 49.3361C31.1818 58.8102 52.1818 49.3361 52.1818 27.5457C52.1801 27.0179 52.1289 26.4914 52.0291 25.973C53.9775 24.0659 55.3525 21.658 56 19.0191V19.0191Z" stroke="white" stroke-width="2" stroke-linecap="round" stroke-linejoin="round"/>
<defs>
<filter id="filter0_d_35_37" x="0" y="0" width="69" height="69" filterUnits="userSpaceOnUse" color-interpolation-filters="sRGB">
<feFlood flood-opacity="0" result="BackgroundImageFix"/>
<feColorMatrix in="SourceAlpha" type="matrix" values="0 0 0 0 0 0 0 0 0 0 0 0 0 0 0 0 0 0 127 0" result="hardAlpha"/>
<feOffset dx="1" dy="1"/>
<feGaussianBlur stdDeviation="2"/>
<feComposite in2="hardAlpha" operator="out"/>
<feColorMatrix type="matrix" values="0 0 0 0 0 0 0 0 0 0 0 0 0 0 0 0 0 0 0.25 0"/>
<feBlend mode="normal" in2="BackgroundImageFix" result="effect1_dropShadow_35_37"/>
<feBlend mode="normal" in="SourceGraphic" in2="effect1_dropShadow_35_37" result="shape"/>
</filter>
<linearGradient id="paint0_linear_35_37" x1="33" y1="-3.5" x2="33" y2="68.5" gradientUnits="userSpaceOnUse">
<stop stop-color="#8C2E26" stop-opacity="0.71"/>
<stop offset="0.500327" stop-color="#7D160E" stop-opacity="0.94"/>
</linearGradient>
</defs>
</svg>
